<svg width="68" height="67" viewBox="0 0 68 67" fill="none" xmlns="http://www.w3.org/2000/svg">
<path d="M33.8981 53C44.6114 53 53.2963 44.2876 53.2963 33.5403C53.2963 22.793 44.6114 14.0806 33.8981 14.0806C23.1848 14.0806 14.5 22.793 14.5 33.5403C14.5 44.2876 23.1848 53 33.8981 53Z" fill="#FDCA47"/>
<path d="M17.6227 26.9889C17.7797 25.5534 18.3054 24.1796 19.0195 22.9208C20.4976 20.3798 22.768 18.3972 25.4805 17.2789C26.824 16.7392 28.2536 16.4118 29.6927 16.457C28.4461 17.1707 27.2691 17.8268 26.1577 18.5774C23.9516 20.0324 21.9503 21.7779 20.2073 23.7673C19.3157 24.7713 18.4965 25.8492 17.6227 26.9889Z" fill="#FFE8BB"/>
<path d="M53.2963 33.5416C53.2957 37.5087 52.0864 41.3808 49.8305 44.6391C47.5746 47.8974 44.38 50.3862 40.6746 51.7721C36.9692 53.1579 32.93 53.3745 29.0985 52.393C25.2669 51.4114 21.8259 49.2785 19.2366 46.2801C22.9422 49.4942 27.7228 51.183 32.6184 51.0073C37.514 50.8316 42.162 48.8044 45.6292 45.3328C49.0964 41.8611 51.1261 37.2022 51.3105 32.2914C51.4949 27.3806 49.8206 22.5817 46.6236 18.8582C48.7208 20.6822 50.4022 22.9375 51.5535 25.4711C52.7049 28.0047 53.2993 30.7572 53.2963 33.5416V33.5416Z" fill="#F9B700"/>
<path d="M33.8654 16.216C30.3878 20.2786 26.8336 23.9577 22.9832 27.0711C21.3933 28.3635 19.7292 29.5614 17.9995 30.6584C17.4133 31.0291 16.8185 31.3871 16.215 31.7323C16.1282 31.7815 16.0302 31.8075 15.9305 31.8077C15.8308 31.808 15.7328 31.7824 15.6458 31.7335C15.5588 31.6847 15.4858 31.6141 15.4339 31.5287C15.382 31.4433 15.3529 31.346 15.3494 31.246L14.6871 12.6506C14.685 12.5774 14.6966 12.5045 14.7213 12.4356C14.7544 12.341 14.8114 12.2566 14.8868 12.1908C14.9622 12.125 15.0534 12.08 15.1514 12.0603C15.219 12.0473 15.2885 12.0473 15.3562 12.0603L33.3793 14.886C33.5197 14.9117 33.6509 14.9737 33.76 15.0659C33.8691 15.1581 33.9523 15.2772 34.0014 15.4116C34.0505 15.5459 34.0638 15.6908 34.04 15.8319C34.0161 15.973 33.956 16.1054 33.8654 16.216V16.216Z" fill="#DF2540"/>
<path d="M22.9832 27.071C21.3933 28.3635 19.7292 29.5613 17.9995 30.6583C16.6095 25.1411 15.5623 18.98 14.7225 12.441C14.7556 12.3464 14.8127 12.262 14.8881 12.1962C14.9635 12.1304 15.0546 12.0854 15.1526 12.0657C18.1128 16.8756 20.7296 21.89 22.9832 27.071V27.071Z" fill="#EC576E"/>
<path d="M50.2215 12.4571C51.4484 12.4571 52.443 11.4593 52.443 10.2285C52.443 8.99775 51.4484 8 50.2215 8C48.9946 8 48 8.99775 48 10.2285C48 11.4593 48.9946 12.4571 50.2215 12.4571Z" fill="#3D63F3"/>
<path d="M40.7961 14.3573L39.6205 18.6802L43.9406 17.5392L40.7961 14.3573Z" fill="#EC576E"/>
<path d="M11.4798 6.13555L6.99998 6.11884L9.22021 9.99643L11.4798 6.13555Z" fill="#3D63F3"/>
<path d="M58.0814 17L57 24.9403L61.4403 19.2559L58.0814 17Z" fill="#79B453"/>
<path d="M49.0814 53L48 60.9403L52.4403 55.2559L49.0814 53Z" fill="#79B453"/>
<path d="M3.28976 34L1 40.6555L5.93589 40.3377L3.28976 34Z" fill="#EC576E"/>
<path d="M11.6822 58.375C12.6112 58.375 13.3643 57.6195 13.3643 56.6875C13.3643 55.7555 12.6112 55 11.6822 55C10.7531 55 10 55.7555 10 56.6875C10 57.6195 10.7531 58.375 11.6822 58.375Z" fill="#3D63F3"/>
<path d="M37.5191 31.8501C37.3037 31.8504 37.0934 31.7838 36.9173 31.6594C36.7411 31.535 36.6076 31.3589 36.5352 31.1554C36.4628 30.9518 36.4549 30.7308 36.5128 30.5226C36.5706 30.3144 36.6913 30.1293 36.8583 29.9927C39.26 28.0258 42.2939 27.7697 45.8767 29.2325C46.0036 29.2842 46.1192 29.3605 46.2167 29.457C46.3143 29.5536 46.392 29.6684 46.4453 29.795C46.4986 29.9216 46.5265 30.0575 46.5275 30.195C46.5285 30.3324 46.5024 30.4687 46.4508 30.5961C46.3993 30.7234 46.3232 30.8394 46.227 30.9372C46.1308 31.0351 46.0164 31.113 45.8901 31.1665C45.7639 31.22 45.6284 31.248 45.4914 31.2489C45.3544 31.2499 45.2185 31.2238 45.0916 31.1721C42.2242 30.0037 39.9673 30.1489 38.1786 31.6145C37.9923 31.7667 37.7594 31.8499 37.5191 31.8501V31.8501Z" fill="#664100"/>
<path d="M23.842 36.2701C23.6541 36.2701 23.4698 36.2192 23.3084 36.1227C23.147 36.0263 23.0146 35.8879 22.9251 35.7222C22.8356 35.5566 22.7923 35.3697 22.7999 35.1814C22.8075 34.9931 22.8656 34.8104 22.9681 34.6525C24.6626 32.05 27.4739 30.8816 31.3325 31.1857C31.6039 31.2129 31.8539 31.3457 32.0289 31.5555C32.2039 31.7654 32.29 32.0357 32.2687 32.3085C32.2475 32.5813 32.1206 32.8349 31.9152 33.0149C31.7099 33.195 31.4423 33.2872 31.17 33.2718C28.0897 33.0293 25.9815 33.8553 24.7158 35.7962C24.621 35.9419 24.4915 36.0616 24.3389 36.1444C24.1863 36.2271 24.0154 36.2704 23.842 36.2701V36.2701Z" fill="#664100"/>
<path d="M29.7337 47.5567C29.6604 47.5566 29.5874 47.5469 29.5166 47.528C29.3102 47.4685 29.1353 47.3301 29.0296 47.1426C28.9239 46.9551 28.8957 46.7334 28.9513 46.5253C29.791 43.4818 28.8721 41.5943 26.0581 40.5697C25.8621 40.4923 25.7038 40.3414 25.6168 40.1489C25.5297 39.9565 25.5208 39.7376 25.5917 39.5387C25.6627 39.3397 25.808 39.1762 25.997 39.0829C26.186 38.9895 26.4037 38.9736 26.6042 39.0384C30.228 40.3506 31.5784 43.09 30.5093 46.9609C30.4623 47.1313 30.3612 47.2818 30.2212 47.3893C30.0812 47.4969 29.91 47.5556 29.7337 47.5567Z" fill="#664100"/>
<path d="M42.0017 44.7241C41.876 44.7244 41.752 44.6954 41.6394 44.6393C41.5269 44.5832 41.4288 44.5015 41.3532 44.4008C38.9351 41.2012 39.1822 38.1549 42.0659 35.5921C42.1457 35.5213 42.2387 35.4669 42.3394 35.432C42.4402 35.3972 42.5467 35.3826 42.6531 35.3891C42.7595 35.3956 42.8636 35.423 42.9594 35.4698C43.0552 35.5167 43.1408 35.5819 43.2115 35.662C43.2821 35.742 43.3364 35.8353 43.3711 35.9363C43.4059 36.0374 43.4204 36.1444 43.4139 36.2511C43.4075 36.3578 43.3801 36.4621 43.3334 36.5583C43.2867 36.6544 43.2216 36.7403 43.1418 36.8112C40.9026 38.8014 40.7456 40.8998 42.6476 43.4174C42.7361 43.5388 42.7897 43.6824 42.8025 43.8323C42.8153 43.9822 42.7868 44.1327 42.7202 44.2675C42.6536 44.4023 42.5514 44.5161 42.4247 44.5966C42.298 44.6772 42.1517 44.7213 42.0017 44.7241V44.7241Z" fill="#664100"/>
<path d="M35.041 44.4611C36.2498 44.4611 37.2297 43.2162 37.2297 41.6806C37.2297 40.1449 36.2498 38.9 35.041 38.9C33.8322 38.9 32.8523 40.1449 32.8523 41.6806C32.8523 43.2162 33.8322 44.4611 35.041 44.4611Z" fill="#664100"/>
<path d="M43.912 44.7707C39.8868 44.2365 36.4023 43.9256 34.4238 43.4667C33.7206 43.4667 33.1499 42.7737 33.1499 41.9176C33.1499 41.0615 33.7206 40.3671 34.4238 40.3671C36.0213 40.0233 40.0097 40.8807 44.282 41.5505C43.9631 41.7142 43.6951 41.9627 43.5074 42.2687C43.3196 42.5747 43.2191 42.9266 43.2169 43.2859C43.2177 43.5693 43.2803 43.8491 43.4004 44.1056C43.5205 44.3621 43.6951 44.5891 43.912 44.7707V44.7707Z" fill="#3D63F3"/>
<path d="M51.0461 39.8136C50.1859 38.8206 49.009 38.2275 47.9057 38.2275C47.227 38.2173 46.568 38.4566 46.0529 38.9C45.3265 39.5329 44.9906 40.5108 45.1312 41.5819V41.6792L44.286 41.5504C43.9672 41.7142 43.6993 41.9626 43.5115 42.2686C43.3237 42.5747 43.2232 42.9265 43.2211 43.2859C43.2218 43.5693 43.2844 43.8491 43.4045 44.1056C43.5245 44.3621 43.6992 44.5891 43.916 44.7707C44.3257 44.8241 44.7271 44.8802 45.1449 44.9378L48.4382 45.4323L49.4063 45.5775C50.0846 45.5879 50.7433 45.3486 51.2577 44.9049L51.4394 44.731C52.5849 43.5215 52.4361 41.4162 51.0461 39.8136ZM50.1886 43.6763C49.5414 44.2406 48.329 43.9023 47.4811 42.9229C46.6331 41.9436 46.4666 40.693 47.1138 40.1287C47.761 39.5644 48.9721 39.9027 49.8214 40.8807C50.6706 41.8586 50.8345 43.1119 50.1886 43.6763V43.6763Z" fill="#8ACBF9"/>
<path d="M54.2875 41.9818L51.4339 44.7309C52.5849 43.5214 52.4361 41.4161 51.0461 39.8136C50.1859 38.8205 49.009 38.2274 47.9057 38.2274C47.227 38.2172 46.568 38.4565 46.0529 38.9L49.1264 36.2646C49.8877 35.6148 50.8713 35.2877 51.8688 35.3526C52.8663 35.4175 53.7995 35.8692 54.4708 36.6123C55.142 37.3553 55.4987 38.3312 55.4653 39.3334C55.4318 40.3356 55.011 41.2855 54.2917 41.9818H54.2875Z" fill="#3D63F3"/>
<path d="M50.1885 43.6763C49.5413 44.2406 48.3289 43.9023 47.481 42.9229C46.633 41.9436 46.4665 40.693 47.1137 40.1287C47.7609 39.5644 48.972 39.9027 49.8213 40.8807C50.6705 41.8587 50.8344 43.112 50.1885 43.6763Z" fill="#3D63F3"/>
</svg>
