<svg width="75" height="87" viewBox="0 0 75 87" fill="none" xmlns="http://www.w3.org/2000/svg">
<path d="M51.0695 61.3693C50.8238 61.5245 48.1658 63.3874 45.6269 65.1986C42.6562 67.3202 41.0331 70.632 41.2863 74.0695L41.5245 77.2409L41.2118 77.7584L20.3572 78.4459L51.0695 61.3693Z" fill="url(#paint0_linear_3575_1389)"/>
<path d="M47.5682 37.0923C47.4937 37.1588 47.397 37.1958 47.3002 37.1958C47.2778 37.1958 47.2555 37.1958 47.2332 37.1884L47.4044 36.2422C47.531 36.3605 47.6203 36.4714 47.665 36.5748C47.7469 36.7597 47.7097 36.9592 47.5682 37.0923Z" fill="#1F2033"/>
<path d="M43.6444 35.1629C45.4387 35.1481 46.8235 35.7099 47.4043 36.2422L47.233 37.1884C47.1586 37.1736 47.0841 37.1441 47.0246 37.0849C46.9501 37.011 46.9129 36.9075 46.9129 36.8114C46.6746 36.5527 45.5951 35.9095 43.7263 35.9095C43.7039 35.9095 43.6816 35.9095 43.6518 35.9095C43.4433 35.9095 43.2646 35.7469 43.2646 35.5399C43.2646 35.3329 43.4359 35.1629 43.6444 35.1629Z" fill="#1F2033"/>
<path d="M38.0014 34.165C37.9567 34.335 37.8004 34.4459 37.6217 34.4459C37.5919 34.4459 37.5621 34.4459 37.5323 34.4385C36.0432 34.1058 34.3755 34.4385 34.3606 34.4385C34.1521 34.4829 33.9436 34.3572 33.899 34.1576C33.8543 33.958 33.9883 33.7658 34.1968 33.7214C34.2712 33.7067 36.0507 33.3518 37.711 33.7214C37.9195 33.7658 38.0461 33.9654 38.0014 34.165Z" fill="#1F2033"/>
<path d="M25.1205 37.6764C25.0461 37.7651 24.9419 37.8095 24.8302 37.8095C24.7408 37.8095 24.6515 37.7799 24.577 37.7208C24.4132 37.5877 24.3983 37.3585 24.5324 37.2033C24.5919 37.1441 25.9246 35.6804 27.8009 35.1777C28.0094 35.126 28.2178 35.2369 28.2774 35.4291C28.337 35.6287 28.2178 35.8283 28.0094 35.8874C26.3565 36.3236 25.1354 37.669 25.1205 37.6764Z" fill="#1F2033"/>
<path d="M17.638 43.3316C17.571 43.4203 17.4668 43.4721 17.3625 43.4795L17.2881 42.5776C17.8167 41.9788 19.1122 40.6925 20.7204 40.2489C20.9289 40.1898 21.1374 40.3081 21.1969 40.5003C21.2565 40.6999 21.1374 40.8995 20.9289 40.9586C19.0973 41.4613 17.6529 43.3094 17.638 43.3316Z" fill="#1F2033"/>
<path d="M17.2807 42.5776L17.3552 43.4795C17.3477 43.4795 17.3328 43.4795 17.3254 43.4795C17.2435 43.4795 17.169 43.4573 17.0946 43.4056C16.9233 43.2799 16.8861 43.0508 17.0127 42.8881C17.0276 42.8733 17.1243 42.7551 17.2807 42.5776Z" fill="#1F2033"/>
<path d="M36.173 48.1737C36.173 48.1737 27.3055 55.3961 31.3335 65.0433L36.173 48.1737ZM22.8308 37.8094C22.9425 37.8094 23.0467 37.7651 23.1212 37.6764C23.136 37.6616 24.3496 36.3235 26.01 35.88C26.2184 35.8283 26.3376 35.6213 26.278 35.4217C26.2259 35.2221 26.01 35.1112 25.8015 35.1703C23.9178 35.673 22.5925 37.1367 22.533 37.1959C22.3989 37.3511 22.4138 37.5877 22.5776 37.7133C22.6521 37.7799 22.7414 37.8094 22.8308 37.8094ZM41.2656 35.5325C41.2656 35.7395 41.4443 35.9022 41.6528 35.9022C41.6826 35.9022 41.7049 35.9022 41.7273 35.9022C43.5961 35.9022 44.6756 36.5527 44.9139 36.8041C44.9064 36.9002 44.9437 37.0036 45.0256 37.0776C45.0851 37.1367 45.1596 37.1737 45.234 37.1811L44.4597 41.4687C44.4597 41.4835 44.1321 43.583 44.1321 43.5977C43.529 47.6784 43.9162 47.4344 45.2713 48.5211C47.0433 49.9553 50.2448 50.4432 52.4114 49.5856C57.6753 47.501 61.0034 45.8746 63.2966 44.9284C64.4953 44.4331 65.8057 44.2039 67.1161 44.3C72.5141 44.7214 69.7295 49.9035 67.7043 50.8128C65.292 51.8995 51.0861 61.3545 51.0861 61.3545C51.0861 61.3545 51.0787 61.3618 51.0713 61.3618L20.3663 78.4311L19.8228 78.4458C20.2844 76.3833 19.1974 70.7651 18.6018 68.1999C18.4008 67.3424 18.1327 66.4996 17.8349 65.6717C17.753 65.4573 17.6785 65.2281 17.6115 65.0063C16.7032 62.1159 15.5566 58.2053 15.4673 55.7362C15.4003 53.9472 15.3407 51.8847 15.6162 50.0292C15.7353 49.2234 15.78 48.4028 15.713 47.5897L15.3556 43.4573C15.4673 43.4499 15.5641 43.3981 15.6311 43.3094C15.646 43.2873 17.0904 41.4391 18.9219 40.9364C19.1304 40.8847 19.2495 40.6777 19.19 40.4781C19.1304 40.2859 18.9145 40.1676 18.7135 40.2268C17.0978 40.6703 15.8098 41.9492 15.2811 42.5554L15.1471 41.0178C15.0875 40.3007 14.9461 39.591 14.7376 38.9035L11.5137 28.421C11.5137 28.421 9.86086 21.7899 10.9032 20.2375C11.5361 19.2913 12.4742 19.1434 13.1145 19.1656L21.3343 38.4674C20.9322 37.4324 17.619 28.8424 16.115 24.052C15.0429 20.6293 14.0601 19.6018 13.5315 19.2987C13.6729 19.343 13.7846 19.3504 13.7846 19.1804C13.7846 19.0769 13.7399 18.8995 13.6282 18.6112C12.3774 14.6636 11.6552 12.0023 11.484 10.5608C11.4765 10.5238 11.4914 10.3612 11.4989 10.3242C11.5137 9.83631 11.819 8.37999 14.2462 8.02516C16.9415 7.63335 18.3337 12.3128 18.3337 12.3128C18.3337 12.3128 22.7861 26.7946 25.2952 31.1192C26.896 33.8914 28.4372 33.1374 29.3455 32.2355C29.8071 31.7772 30.1422 31.2227 30.3655 30.6239L36.6048 13.7174C37.0739 12.4385 37.5057 11.1522 37.8705 9.84371C38.4736 7.69989 39.0395 6.32489 39.5309 5.44519C40.2233 4.17368 41.8538 3.51575 43.3355 3.98887C44.8618 4.47677 45.2192 5.78524 45.3383 6.46535C45.3532 6.56884 45.3755 6.65755 45.4127 6.73147C45.4797 6.86454 45.5914 6.93107 45.785 6.84236C48.3388 5.75567 49.2844 8.43914 49.5226 9.4593C49.7832 10.5312 47.9293 22.3296 47.9293 22.3296L45.4127 36.2274C44.832 35.7026 43.4471 35.1407 41.6528 35.1481C41.4369 35.1629 41.2656 35.333 41.2656 35.5325ZM35.622 34.4459C35.8007 34.4459 35.9571 34.3276 36.0017 34.1649C36.0464 33.9653 35.9198 33.7657 35.7114 33.7214C34.051 33.3518 32.2716 33.7066 32.1971 33.7214C31.9886 33.7657 31.8546 33.9579 31.8993 34.1575C31.944 34.3571 32.1524 34.4828 32.3609 34.4385C32.3758 34.4385 34.0436 34.1058 35.5327 34.4385C35.5624 34.4459 35.5922 34.4459 35.622 34.4459Z" fill="url(#paint1_linear_3575_1389)"/>
<path d="M43.5012 77.9116C43.0012 77.9116 43.1396 77.5417 43.08 77.3569C43.08 77.3569 43.0875 77.337 43.08 77.337H43.0875V77.2704L42.8492 74.1138C42.5812 70.5211 44.2713 67.054 47.376 64.8437C49.8107 63.1064 52.5581 61.177 52.8335 60.9996L52.8559 60.9848C53.0346 60.8739 53.2654 60.9035 53.4143 61.0513C53.5855 61.2288 53.5855 61.5097 53.4068 61.6871C53.3771 61.7167 53.3398 61.7388 53.31 61.761C53.0643 61.9237 50.4436 63.757 47.9047 65.5681C45.0605 67.5937 43.5044 70.765 43.7501 74.0473L43.9884 77.2483C44.0405 77.6548 43.9107 77.7712 43.5012 77.9116C43.4491 77.9264 43.5459 77.9116 43.5012 77.9116Z" fill="#030C21"/>
<path d="M21.8233 78.9116C21.7935 78.9116 21.7563 78.9116 21.7265 78.9042C21.4808 78.8525 21.3319 78.6085 21.384 78.3719C21.8158 76.4351 20.7735 70.9573 20.1629 68.3256C19.9842 67.5568 19.7385 66.7436 19.4109 65.8417C19.329 65.6199 19.2471 65.3834 19.1801 65.1542C18.2941 62.3377 17.1029 58.3088 17.021 55.7658C16.9614 54.1468 16.8795 51.9217 17.1773 49.9775C17.3039 49.1347 17.3337 48.3733 17.2667 47.6488L16.9093 43.5164C16.887 43.2725 17.0731 43.0507 17.3188 43.0285C17.5645 43.0064 17.7878 43.1912 17.8102 43.4351L18.1676 47.5675C18.2346 48.3585 18.2048 49.1939 18.0708 50.1105C17.7878 51.9734 17.8623 54.1468 17.9219 55.7362C18.0038 58.1683 19.1727 62.1233 20.0438 64.8881C20.1108 65.0951 20.1853 65.3242 20.2597 65.5312C20.5948 66.4627 20.8554 67.3128 21.0415 68.1186C21.1159 68.4365 22.8507 75.9398 22.2625 78.5641C22.2179 78.7711 22.0317 78.9116 21.8233 78.9116Z" fill="#030C21"/>
<path d="M17.2804 43.0285C17.0496 43.0285 16.8486 42.8511 16.8337 42.622L16.6997 41.0843C16.6401 40.3968 16.5061 39.7167 16.3051 39.0662L13.0812 28.5319C12.91 27.8296 11.4134 21.6569 12.5303 19.9936C13.111 19.1287 14.0342 18.6777 15.1362 18.7295C15.3893 18.7369 15.5829 18.9512 15.568 19.1952C15.5605 19.4391 15.3521 19.6387 15.0989 19.624C14.5554 19.6018 13.796 19.7348 13.2897 20.4889C12.6122 21.4943 13.3418 25.8115 13.9598 28.3027L17.1762 38.8001C17.3996 39.5097 17.541 40.2564 17.608 41.003L17.742 42.5406C17.7644 42.7846 17.5783 43.0064 17.3326 43.0285C17.3028 43.0285 17.2953 43.0285 17.2804 43.0285Z" fill="#030C21"/>
<path d="M29.6851 33.507C29.5957 33.507 29.5064 33.4996 29.417 33.4922C28.5012 33.3739 27.6599 32.6495 26.9079 31.3484C24.4063 27.0238 20.0879 13.0372 19.9092 12.4458C19.8943 12.4015 18.584 8.13603 16.3131 8.46869C14.1093 8.79396 13.9603 10.0803 13.9529 10.339C13.9529 10.3612 13.9529 10.3833 13.9455 10.4203C13.9455 10.4573 13.938 10.5016 13.938 10.5312C14.1018 11.8988 14.7942 14.501 16.0525 18.4707C16.1791 18.8034 16.2312 19.0177 16.2312 19.1804C16.2312 19.4613 16.0823 19.6091 16.0004 19.6683C15.7621 19.8457 15.4792 19.757 15.3899 19.7274C15.1516 19.6535 15.025 19.3948 15.0995 19.1656C15.1293 19.0695 15.1888 18.9956 15.2633 18.9438C15.2484 18.8995 15.2261 18.8403 15.2037 18.7738L15.1963 18.7516C13.9008 14.6562 13.2084 12.0688 13.0371 10.6273C13.0297 10.5608 13.0297 10.4868 13.0446 10.3538V10.3094C13.052 9.93979 13.253 8.01036 16.1716 7.58159C19.2168 7.13805 20.6985 11.9801 20.7655 12.1871C20.8101 12.3276 25.2327 26.6616 27.6823 30.8975C28.2779 31.9324 28.9182 32.5238 29.5287 32.6051C29.9978 32.6643 30.5041 32.4425 31.0178 31.925C31.4199 31.5258 31.7251 31.0379 31.9336 30.4761L38.1728 13.5695C38.6717 12.2241 39.0812 10.9673 39.4311 9.73281C39.9672 7.81816 40.5405 6.3027 41.1287 5.23818C41.9402 3.75229 43.8016 3.03522 45.4694 3.56748C46.7351 3.97407 47.5392 4.95727 47.7774 6.3988C47.7923 6.48751 47.8072 6.52447 47.8147 6.54665C47.9189 6.76842 47.8295 7.03455 47.5987 7.14544C47.3754 7.24894 47.1073 7.16022 46.9957 6.93106C46.9435 6.82756 46.9063 6.70928 46.884 6.54665C46.6978 5.43039 46.132 4.72071 45.1939 4.41762C43.943 4.01842 42.5359 4.55068 41.9253 5.65955C41.3669 6.66493 40.8234 8.11386 40.3022 9.96937C39.9449 11.2335 39.5279 12.505 39.0291 13.8726L32.7824 30.7866C32.5292 31.4667 32.1495 32.0655 31.6581 32.5534C31.0327 33.1817 30.3477 33.507 29.6851 33.507ZM13.9306 10.5016V10.509V10.5164C13.9306 10.509 13.9306 10.509 13.9306 10.5016Z" fill="#030C21"/>
<path d="M47.4055 36.6858C47.3757 36.6858 47.3534 36.6858 47.3236 36.6784C47.0779 36.634 46.9141 36.3975 46.9588 36.1535L49.4753 22.2557C50.3613 16.6152 51.225 10.2429 51.0761 9.5702C50.9718 9.13405 50.5623 7.69252 49.5944 7.20461C49.1328 6.97545 48.5967 6.99023 47.9564 7.26375C47.5693 7.43378 47.1896 7.30811 47.0034 6.94588C46.8917 6.7241 46.9811 6.45797 47.197 6.33969C47.3683 6.25098 47.5618 6.28056 47.6959 6.39883C48.5521 6.05878 49.319 6.06617 49.9965 6.40623C51.2771 7.04937 51.7908 8.6905 51.9472 9.36322C52.2152 10.4647 50.674 20.4224 50.3613 22.4035L47.8448 36.3162C47.815 36.5379 47.6214 36.6858 47.4055 36.6858Z" fill="#1F2033"/>
<path d="M53.0852 61.8128C52.9363 61.8128 52.7949 61.7463 52.713 61.6132C52.5715 61.4062 52.6311 61.1253 52.8396 60.9922C53.4203 60.6078 67.105 51.5077 69.5247 50.4136C70.582 49.9405 72.0413 47.9149 71.7732 46.4217C71.602 45.4459 70.6937 44.884 69.0854 44.7584C67.8793 44.6696 66.6285 44.8692 65.4744 45.3497C64.6926 45.675 63.7694 46.0816 62.7047 46.5547C60.6275 47.4788 58.0439 48.632 54.5818 49.9996C52.296 50.9089 48.886 50.3988 46.9875 48.8686C46.846 48.7577 46.7194 48.6542 46.6003 48.5655C45.3346 47.6045 45.1559 47.1461 45.6845 43.5312L45.692 43.5016C45.7217 43.3168 45.9749 41.6757 46.0121 41.4317L46.0195 41.3874L46.7939 37.0997C46.8385 36.8558 47.0694 36.6932 47.3151 36.7375C47.5608 36.7819 47.7246 37.011 47.6799 37.255L46.9056 41.5426C46.8534 41.9049 46.6226 43.376 46.578 43.6569C46.0791 47.0426 46.2429 47.1683 47.1438 47.8484C47.2704 47.9445 47.4044 48.048 47.5533 48.1663C49.2211 49.5117 52.2216 49.9627 54.2393 49.1643C57.6791 47.8041 60.2552 46.6508 62.325 45.7342C63.3971 45.2536 64.3204 44.8471 65.117 44.5144C66.4051 43.9821 67.8048 43.753 69.145 43.8565C71.7286 44.0561 72.4805 45.2758 72.6518 46.259C73.0092 48.255 71.2446 50.6132 69.8821 51.2268C67.5293 52.2839 53.4724 61.6354 53.3309 61.7315C53.2565 61.7906 53.1746 61.8128 53.0852 61.8128Z" fill="#030C21"/>
<path d="M33.3333 65.4943C33.1546 65.4943 32.9908 65.3908 32.9163 65.2133C31.2188 61.1327 31.5389 56.8303 33.8544 52.7644C35.5892 49.7113 37.8005 47.9002 37.8899 47.8189C38.0834 47.6636 38.3664 47.6932 38.5227 47.878C38.6791 48.0702 38.6567 48.3511 38.4632 48.5064C38.4408 48.5211 36.2742 50.3101 34.6288 53.2228C32.4398 57.0816 32.1494 60.9996 33.7577 64.8585C33.8544 65.0877 33.7428 65.3538 33.512 65.4425C33.4449 65.4795 33.3854 65.4943 33.3333 65.4943Z" fill="#030C21"/>
<path d="M23.8408 48.3363C22.7985 48.3363 22.255 48.1662 22.188 48.1367C21.9497 48.0554 21.8306 47.7966 21.9125 47.5675C21.9944 47.3309 22.2475 47.2126 22.4858 47.2865C22.5602 47.3087 28.0177 48.9351 39.8113 40.2489C40.0123 40.1011 40.2952 40.1454 40.4441 40.345C40.593 40.5446 40.5484 40.8255 40.3473 40.9734C31.6958 47.3457 26.3351 48.3363 23.8408 48.3363Z" fill="#030C21"/>
<path d="M38.9317 34.5271C38.887 34.5271 38.8423 34.5197 38.7976 34.505C38.5594 34.431 38.4254 34.1797 38.4998 33.9431L46.9727 6.61318C47.0248 6.42097 47.2035 6.28052 47.412 6.28052C47.6651 6.28052 47.8662 6.48011 47.8662 6.72407V6.7906L47.8438 6.85713L39.3635 34.2167C39.3039 34.4089 39.1252 34.5271 38.9317 34.5271Z" fill="#1F2033"/>
<path d="M23.3639 38.9922C23.1852 38.9922 23.0214 38.8887 22.9469 38.7187C22.9395 38.7039 22.932 38.6891 22.932 38.6743L22.9171 38.63C22.5449 37.6615 19.2093 29.0271 17.683 24.1851C16.6034 20.7402 15.6579 19.89 15.3005 19.6831C15.2111 19.6313 15.159 19.6165 15.1367 19.6165C14.9133 19.6313 14.6974 19.4687 14.6676 19.2395C14.6304 18.9956 14.7942 18.7664 15.0399 18.7294C15.1367 18.7146 15.3898 18.6999 15.7547 18.9142C16.4322 19.306 17.4671 20.4962 18.5467 23.9263C20.0507 28.7167 23.3564 37.2697 23.751 38.2973C23.7659 38.3269 23.7734 38.3491 23.7808 38.3786C23.8776 38.6078 23.7659 38.8665 23.5351 38.9626C23.483 38.9848 23.4234 38.9922 23.3639 38.9922Z" fill="#1F2033"/>
<path d="M23.3785 39.0218C23.1998 39.0218 23.0286 38.9109 22.9541 38.7335L22.9467 38.7039C22.8573 38.4747 22.969 38.216 23.2073 38.1199C23.4381 38.0312 23.6987 38.1421 23.7955 38.3787L23.8029 38.4082C23.8922 38.6374 23.7806 38.8961 23.5423 38.9922C23.4827 39.007 23.4306 39.0218 23.3785 39.0218Z" fill="#1F2033"/>
<path d="M21.2097 80.9116C21.1641 81.1509 21.0736 81.3198 21 81.5407" stroke="#030C21" stroke-linecap="round"/>
<path d="M44 79.9116C44.2959 81.0458 44.7646 82.0042 45.2676 83.0101" stroke="#030C21" stroke-linecap="round"/>
<path d="M46.5 84.4116C46.5 84.4116 46.2057 84.3229 46 83.9116" stroke="#030C21" stroke-linecap="round"/>
<defs>
<linearGradient id="paint0_linear_3575_1389" x1="16.9998" y1="44.9116" x2="35.7134" y2="78.4459" gradientUnits="userSpaceOnUse">
<stop stop-color="#E7E5F3"/>
<stop offset="1" stop-color="#F9F8FF" stop-opacity="0"/>
</linearGradient>
<linearGradient id="paint1_linear_3575_1389" x1="25.9998" y1="61.9116" x2="40.405" y2="78.4458" gradientUnits="userSpaceOnUse">
<stop stop-color="#F6F4FF"/>
<stop offset="1" stop-color="#F9F8FF" stop-opacity="0"/>
</linearGradient>
</defs>
</svg>
