<svg  width="24" height="24" viewBox="0 0 24 24" xmlns="http://www.w3.org/2000/svg">
<path d="M16 7H15.1429V5.28571C15.1429 2.92 13.2229 1 10.8571 1C8.49143 1 6.57143 2.92 6.57143 5.28571V7H5.71429C4.77143 7 4 7.77143 4 8.71429V17.2857C4 18.2286 4.77143 19 5.71429 19H16C16.9429 19 17.7143 18.2286 17.7143 17.2857V8.71429C17.7143 7.77143 16.9429 7 16 7ZM10.8571 14.7143C9.91429 14.7143 9.14286 13.9429 9.14286 13C9.14286 12.0571 9.91429 11.2857 10.8571 11.2857C11.8 11.2857 12.5714 12.0571 12.5714 13C12.5714 13.9429 11.8 14.7143 10.8571 14.7143ZM13.5143 7H8.2V5.28571C8.2 3.82 9.39143 2.62857 10.8571 2.62857C12.3229 2.62857 13.5143 3.82 13.5143 5.28571V7Z" fill="black"/>
</svg>
