<svg width="209" height="38" viewBox="0 0 209 38" fill="none" xmlns="http://www.w3.org/2000/svg">
<path fill-rule="evenodd" clip-rule="evenodd" d="M19.0271 25.8603L10.1203 32.7415L16.5406 37.6882C17.0802 38.1039 17.8545 38.1039 18.3941 37.6882L34.1309 25.5863L26.7454 19.9121L19.0271 25.8603ZM16.3349 26.1897L13.4732 23.9843L13.4691 23.9923L0.000162336 13.7695C0.000150891 13.7719 0.000147076 13.7743 0.000147076 13.7767L0.000146961 15.0982L0.000143146 15.1005L0.000146279 22.8995L0.000142348 24.2234C0.000142308 24.6853 0.211297 25.101 0.563222 25.3782L8.95603 31.8445L16.3349 26.1897ZM0.704565 12.513L8.07525 18.1758L16.5406 11.6518C16.6152 11.5944 16.6943 11.5449 16.7766 11.5033L24.8758 5.29637L18.3941 0.311823C17.8545 -0.103902 17.0802 -0.103902 16.5406 0.311823L0.704565 12.513ZM26.0547 6.20298L18.6686 11.8634L27.9289 19L27.9227 19.0048L34.9275 24.3865C34.9322 24.34 34.9346 24.2932 34.9346 24.2465L34.9346 22.902L34.9346 22.8995L34.9346 13.7536C34.9346 13.3147 34.7234 12.8759 34.3715 12.5988L26.0547 6.20298Z" fill="black"/>
<g opacity="0.9">
<path d="M44.7274 14.118H42.4635L45.8673 19.5725L42.4209 25.027H44.7007L47.1297 21.0586H47.2149L49.6439 25.027H51.9344L48.52 19.5725L51.8811 14.118H49.6279L47.2149 18.113H47.1297L44.7274 14.118Z" fill="black"/>
<path d="M53.8825 25.027H55.8587V21.341H57.9468C60.4663 21.341 61.8193 19.8282 61.8193 17.7295C61.8193 15.6467 60.4823 14.118 57.9734 14.118H53.8825V25.027ZM55.8587 19.7163V15.7692H57.6698C59.1506 15.7692 59.8058 16.5682 59.8058 17.7295C59.8058 18.8907 59.1506 19.7163 57.6805 19.7163H55.8587Z" fill="black"/>
<path d="M64.5758 25.1442C65.2043 25.1442 65.7423 24.6222 65.7477 23.9724C65.7423 23.3331 65.2043 22.8111 64.5758 22.8111C63.9259 22.8111 63.3986 23.3331 63.4039 23.9724C63.3986 24.6222 63.9259 25.1442 64.5758 25.1442Z" fill="black"/>
<path d="M77.2386 14.118H75.273V21.554H75.1771L70.0422 14.118H68.2737V25.027H70.2499V17.5963H70.3405L75.4808 25.027H77.2386V14.118Z" fill="black"/>
<path d="M79.8419 25.027H86.9797V23.3704H81.8181V20.3928H86.5695V18.7362H81.8181V15.7746H86.9371V14.118H79.8419V25.027Z" fill="black"/>
<path d="M88.9238 15.7746H92.2956V25.027H94.2559V15.7746H97.6277V14.118H88.9238V15.7746Z" fill="black"/>
<path d="M102.051 25.027H104.001L106.19 17.3726H106.275L108.459 25.027H110.409L113.488 14.118H111.362L109.397 22.14H109.301L107.197 14.118H105.263L103.165 22.1346H103.063L101.098 14.118H98.9725L102.051 25.027Z" fill="black"/>
<path d="M124.47 19.5725C124.47 16.0462 122.318 13.9688 119.458 13.9688C116.592 13.9688 114.445 16.0462 114.445 19.5725C114.445 23.0934 116.592 25.1762 119.458 25.1762C122.318 25.1762 124.47 23.0988 124.47 19.5725ZM122.483 19.5725C122.483 22.0547 121.237 23.4024 119.458 23.4024C117.684 23.4024 116.432 22.0547 116.432 19.5725C116.432 17.0903 117.684 15.7426 119.458 15.7426C121.237 15.7426 122.483 17.0903 122.483 19.5725Z" fill="black"/>
<path d="M126.788 25.027H128.765V21.032H130.778L132.919 25.027H135.125L132.765 20.7018C134.049 20.1851 134.725 19.0878 134.725 17.6069C134.725 15.5242 133.383 14.118 130.879 14.118H126.788V25.027ZM128.765 19.3914V15.7692H130.576C132.051 15.7692 132.712 16.4457 132.712 17.6069C132.712 18.7682 132.051 19.3914 130.586 19.3914H128.765Z" fill="black"/>
<path d="M136.994 25.027H138.97V21.7778L140.18 20.3502L143.434 25.027H145.81L141.554 19.0132L145.773 14.118H143.36L139.104 19.1304H138.97V14.118H136.994V25.027Z" fill="black"/>
<path d="M153.673 10.6023H152.608V28.5427H153.673V10.6023Z" fill="black"/>
<path d="M167.367 16.9837H168.954C168.906 15.2366 167.361 13.9688 165.145 13.9688C162.956 13.9688 161.278 15.2206 161.278 17.1009C161.278 18.619 162.365 19.5086 164.117 19.9827L165.406 20.3342C166.573 20.6432 167.473 21.0267 167.473 21.9961C167.473 23.0615 166.456 23.7646 165.055 23.7646C163.787 23.7646 162.732 23.2 162.637 22.0121H160.985C161.092 23.9883 162.621 25.2081 165.066 25.2081C167.628 25.2081 169.103 23.8605 169.103 22.0121C169.103 20.0466 167.351 19.2849 165.966 18.9439L164.9 18.667C164.048 18.4486 162.914 18.0491 162.919 17.005C162.919 16.0782 163.766 15.391 165.108 15.391C166.36 15.391 167.25 15.977 167.367 16.9837Z" fill="black"/>
<path d="M170.982 15.5349H174.381V25.027H176.021V15.5349H179.425V14.118H170.982V15.5349Z" fill="black"/>
<path d="M181.358 25.027L182.36 22.14H186.621L187.617 25.027H189.364L185.439 14.118H183.537L179.611 25.027H181.358ZM182.839 20.755L184.448 16.0995H184.533L186.142 20.755H182.839Z" fill="black"/>
<path d="M191.39 25.027H193.036V21.6339L194.325 20.1531L197.851 25.027H199.833L195.417 19.0292L199.817 14.118H197.745L193.169 19.3275H193.036V14.118H191.39V25.027Z" fill="black"/>
<path d="M201.801 25.027H208.704V23.6101H203.447V20.2703H208.283V18.8587H203.447V15.5349H208.64V14.118H201.801V25.027Z" fill="black"/>
</g>
</svg>
