<svg width="130" height="130" viewBox="0 0 130 130" fill="none" xmlns="http://www.w3.org/2000/svg">
<path d="M111.843 14.4853L71.2432 44.6391L78.751 26.8487L111.843 14.4853Z" fill="#E2761B" stroke="#E2761B" stroke-linecap="round" stroke-linejoin="round"/>
<path d="M18.1167 14.4853L58.3898 44.9247L51.2492 26.8487L18.1167 14.4853Z" fill="#E4761B" stroke="#E4761B" stroke-linecap="round" stroke-linejoin="round"/>
<path d="M97.2348 84.3817L86.4219 100.948L109.557 107.313L116.208 84.7489L97.2348 84.3817Z" fill="#E4761B" stroke="#E4761B" stroke-linecap="round" stroke-linejoin="round"/>
<path d="M13.8325 84.7489L20.4427 107.313L43.5783 100.948L32.7654 84.3817L13.8325 84.7489Z" fill="#E4761B" stroke="#E4761B" stroke-linecap="round" stroke-linejoin="round"/>
<path d="M42.2726 56.3905L35.8257 66.1425L58.7981 67.1626L57.982 42.4765L42.2726 56.3905Z" fill="#E4761B" stroke="#E4761B" stroke-linecap="round" stroke-linejoin="round"/>
<path d="M87.687 56.3905L71.7736 42.1909L71.2432 67.1626L94.1747 66.1425L87.687 56.3905Z" fill="#E4761B" stroke="#E4761B" stroke-linecap="round" stroke-linejoin="round"/>
<path d="M43.5781 100.948L57.3697 94.2153L45.4551 84.9121L43.5781 100.948Z" fill="#E4761B" stroke="#E4761B" stroke-linecap="round" stroke-linejoin="round"/>
<path d="M72.5894 94.2153L86.4218 100.948L84.504 84.9121L72.5894 94.2153Z" fill="#E4761B" stroke="#E4761B" stroke-linecap="round" stroke-linejoin="round"/>
<path d="M86.4217 100.948L72.5894 94.2153L73.6911 103.233L73.5686 107.028L86.4217 100.948Z" fill="#D7C1B3" stroke="#D7C1B3" stroke-linecap="round" stroke-linejoin="round"/>
<path d="M43.5781 100.948L56.4312 107.028L56.3496 103.233L57.3697 94.2153L43.5781 100.948Z" fill="#D7C1B3" stroke="#D7C1B3" stroke-linecap="round" stroke-linejoin="round"/>
<path d="M56.6355 78.9548L45.1289 75.5681L53.2488 71.855L56.6355 78.9548Z" fill="#233447" stroke="#233447" stroke-linecap="round" stroke-linejoin="round"/>
<path d="M73.3237 78.9548L76.7104 71.855L84.8711 75.5681L73.3237 78.9548Z" fill="#233447" stroke="#233447" stroke-linecap="round" stroke-linejoin="round"/>
<path d="M43.5781 100.948L45.5366 84.3817L32.7651 84.7489L43.5781 100.948Z" fill="#CD6116" stroke="#CD6116" stroke-linecap="round" stroke-linejoin="round"/>
<path d="M84.4634 84.3817L86.4219 100.948L97.2349 84.7489L84.4634 84.3817Z" fill="#CD6116" stroke="#CD6116" stroke-linecap="round" stroke-linejoin="round"/>
<path d="M94.1743 66.1425L71.2427 67.1626L73.3645 78.9548L76.7512 71.855L84.9119 75.5681L94.1743 66.1425Z" fill="#CD6116" stroke="#CD6116" stroke-linecap="round" stroke-linejoin="round"/>
<path d="M45.1284 75.5681L53.2891 71.855L56.635 78.9548L58.7976 67.1626L35.8252 66.1425L45.1284 75.5681Z" fill="#CD6116" stroke="#CD6116" stroke-linecap="round" stroke-linejoin="round"/>
<path d="M35.8257 66.1425L45.4553 84.9121L45.1289 75.5681L35.8257 66.1425Z" fill="#E4751F" stroke="#E4751F" stroke-linecap="round" stroke-linejoin="round"/>
<path d="M84.9124 75.5681L84.5044 84.9121L94.1748 66.1425L84.9124 75.5681Z" fill="#E4751F" stroke="#E4751F" stroke-linecap="round" stroke-linejoin="round"/>
<path d="M58.7983 67.1626L56.6357 78.9548L59.3288 92.8688L59.9408 74.548L58.7983 67.1626Z" fill="#E4751F" stroke="#E4751F" stroke-linecap="round" stroke-linejoin="round"/>
<path d="M71.2433 67.1626L70.1416 74.5072L70.6313 92.8688L73.3651 78.9548L71.2433 67.1626Z" fill="#E4751F" stroke="#E4751F" stroke-linecap="round" stroke-linejoin="round"/>
<path d="M73.3647 78.9548L70.6309 92.8688L72.5894 94.2153L84.5041 84.9121L84.9121 75.5681L73.3647 78.9548Z" fill="#F6851B" stroke="#F6851B" stroke-linecap="round" stroke-linejoin="round"/>
<path d="M45.1289 75.5681L45.4553 84.9121L57.37 94.2153L59.3285 92.8688L56.6355 78.9548L45.1289 75.5681Z" fill="#F6851B" stroke="#F6851B" stroke-linecap="round" stroke-linejoin="round"/>
<path d="M73.5687 107.028L73.6911 103.233L72.671 102.335H57.2881L56.3496 103.233L56.4312 107.028L43.5781 100.948L48.0665 104.62L57.1657 110.945H72.7934L81.9334 104.62L86.4218 100.948L73.5687 107.028Z" fill="#C0AD9E" stroke="#C0AD9E" stroke-linecap="round" stroke-linejoin="round"/>
<path d="M72.5894 94.2153L70.6308 92.8688H59.3283L57.3697 94.2153L56.3496 103.233L57.2881 102.335H72.671L73.6911 103.233L72.5894 94.2153Z" fill="#161616" stroke="#161616" stroke-linecap="round" stroke-linejoin="round"/>
<path d="M113.556 46.5976L117.024 29.9498L111.842 14.4853L72.5894 43.619L87.6867 56.3905L109.027 62.6334L113.76 57.1249L111.72 55.656L114.984 52.6773L112.454 50.7188L115.719 48.2298L113.556 46.5976Z" fill="#763D16" stroke="#763D16" stroke-linecap="round" stroke-linejoin="round"/>
<path d="M12.9756 29.9498L16.4439 46.5976L14.2405 48.2298L17.5048 50.7188L15.0158 52.6773L18.28 55.656L16.2399 57.1249L20.9323 62.6334L42.2725 56.3905L57.3698 43.619L18.1168 14.4853L12.9756 29.9498Z" fill="#763D16" stroke="#763D16" stroke-linecap="round" stroke-linejoin="round"/>
<path d="M109.027 62.6334L87.6866 56.3904L94.1743 66.1425L84.5039 84.9121L97.2346 84.7489H116.208L109.027 62.6334Z" fill="#F6851B" stroke="#F6851B" stroke-linecap="round" stroke-linejoin="round"/>
<path d="M42.2726 56.3904L20.9323 62.6334L13.8325 84.7489H32.7654L45.4552 84.9121L35.8256 66.1425L42.2726 56.3904Z" fill="#F6851B" stroke="#F6851B" stroke-linecap="round" stroke-linejoin="round"/>
<path d="M71.2428 67.1626L72.5893 43.619L78.7914 26.8487H51.249L57.3696 43.619L58.7977 67.1626L59.2873 74.5888L59.3281 92.8688H70.6307L70.7123 74.5888L71.2428 67.1626Z" fill="#F6851B" stroke="#F6851B" stroke-linecap="round" stroke-linejoin="round"/>
</svg>
