<svg width="30" height="30" viewBox="0 0 24 24" fill="none" xmlns="http://www.w3.org/2000/svg">
<path d="M20.6479 2.67419L13.1526 8.24105L14.5386 4.95668L20.6479 2.67419Z" fill="#E2761B"/>
<path fill-rule="evenodd" clip-rule="evenodd" d="M20.778 2.60341C20.8132 2.66824 20.7954 2.74913 20.7362 2.79313L13.2409 8.35999C13.1873 8.39982 13.1136 8.39883 13.0611 8.35758C13.0085 8.31632 12.9901 8.245 13.0161 8.18345L14.4021 4.89909C14.418 4.86154 14.4486 4.83217 14.4868 4.81791L20.596 2.53542C20.6651 2.5096 20.7427 2.53858 20.778 2.60341ZM14.6503 5.07312L13.5002 7.79832L19.7194 3.17923L14.6503 5.07312Z" fill="#E2761B"/>
<path d="M3.34457 2.67419L10.7796 8.29378L9.46134 4.95668L3.34457 2.67419Z" fill="#E4761B"/>
<path fill-rule="evenodd" clip-rule="evenodd" d="M3.21474 2.60289C3.25015 2.53842 3.32749 2.50969 3.39639 2.5354L9.51316 4.81789C9.55248 4.83256 9.58373 4.86322 9.59915 4.90226L10.9174 8.23935C10.9418 8.30111 10.9221 8.37155 10.8693 8.41173C10.8164 8.45191 10.7433 8.45201 10.6903 8.41197L3.25527 2.79239C3.1966 2.74804 3.17934 2.66736 3.21474 2.60289ZM4.2431 3.1676L10.448 7.85739L9.3478 5.07244L4.2431 3.1676Z" fill="#E4761B"/>
<path d="M17.951 15.5782L15.9548 18.6365L20.226 19.8117L21.4538 15.646L17.951 15.5782Z" fill="#E4761B"/>
<path fill-rule="evenodd" clip-rule="evenodd" d="M17.827 15.4972C17.8549 15.4544 17.9028 15.429 17.9539 15.43L21.4567 15.4978C21.5029 15.4987 21.546 15.5211 21.5733 15.5584C21.6007 15.5956 21.609 15.6435 21.596 15.6878L20.3681 19.8535C20.3452 19.931 20.2646 19.9759 20.1867 19.9545L15.9155 18.7794C15.8699 18.7668 15.833 18.7332 15.8162 18.689C15.7995 18.6447 15.8049 18.5952 15.8307 18.5555L17.827 15.4972ZM18.0302 15.7278L16.1898 18.5475L20.125 19.6302L21.2568 15.7903L18.0302 15.7278Z" fill="#E4761B"/>
<path d="M2.55365 15.646L3.77399 19.8117L8.04517 18.6365L6.04894 15.5782L2.55365 15.646Z" fill="#E4761B"/>
<path fill-rule="evenodd" clip-rule="evenodd" d="M6.04606 15.43C6.09711 15.429 6.14508 15.4544 6.17299 15.4972L8.16922 18.5555C8.19508 18.5952 8.20046 18.6447 8.18371 18.689C8.16695 18.7332 8.13008 18.7668 8.08446 18.7794L3.81328 19.9545C3.7353 19.976 3.65454 19.9309 3.6318 19.8533L2.41146 15.6876C2.39849 15.6433 2.4069 15.5955 2.43421 15.5583C2.46152 15.5211 2.50462 15.4987 2.55076 15.4978L6.04606 15.43ZM2.7503 15.7903L3.87518 19.6302L7.81016 18.5475L5.96973 15.7279L2.7503 15.7903Z" fill="#E4761B"/>
<path d="M7.8041 10.4105L6.61389 12.2109L10.8549 12.3992L10.7043 7.8418L7.8041 10.4105Z" fill="#E4761B"/>
<path fill-rule="evenodd" clip-rule="evenodd" d="M10.7629 7.70574C10.8156 7.72843 10.8505 7.77955 10.8524 7.83692L11.003 12.3944C11.0044 12.4356 10.9885 12.4756 10.9591 12.5046C10.9298 12.5336 10.8896 12.5491 10.8484 12.5473L6.60734 12.3589C6.55403 12.3566 6.50612 12.3257 6.4819 12.2782C6.45768 12.2306 6.4609 12.1737 6.49032 12.1292L7.68053 10.3289C7.68767 10.3181 7.6962 10.3082 7.70589 10.2996L10.6061 7.73091C10.649 7.69285 10.7101 7.68304 10.7629 7.70574ZM7.91694 10.5085L6.88168 12.0745L10.7016 12.2441L10.5666 8.16164L7.91694 10.5085Z" fill="#E4761B"/>
<path d="M16.1883 10.4106L13.2504 7.78909L13.1525 12.3993L17.386 12.2109L16.1883 10.4106Z" fill="#E4761B"/>
<path fill-rule="evenodd" clip-rule="evenodd" d="M13.1913 7.65324C13.2443 7.63017 13.3059 7.64005 13.3491 7.67854L16.2869 10.3C16.2963 10.3084 16.3046 10.318 16.3116 10.3285L17.5094 12.1289C17.539 12.1734 17.5423 12.2303 17.5181 12.278C17.494 12.3256 17.446 12.3566 17.3926 12.3589L13.1591 12.5473C13.1182 12.5491 13.0783 12.5339 13.049 12.5052C13.0197 12.4766 13.0035 12.4371 13.0044 12.3961L13.1023 7.78593C13.1036 7.72813 13.1383 7.67632 13.1913 7.65324ZM13.3917 8.1137L13.304 12.2442L17.1174 12.0746L16.0755 10.5084L13.3917 8.1137Z" fill="#E4761B"/>
<path d="M8.0452 18.6365L10.5913 17.3936L8.39171 15.6761L8.0452 18.6365Z" fill="#E4761B"/>
<path fill-rule="evenodd" clip-rule="evenodd" d="M8.33457 15.5394C8.38397 15.5188 8.44065 15.5264 8.48284 15.5593L10.6825 17.2768C10.7227 17.3083 10.744 17.3582 10.7386 17.4091C10.7333 17.4599 10.7022 17.5043 10.6563 17.5267L8.11014 18.7697C8.06146 18.7934 8.00369 18.7887 7.95949 18.7574C7.91529 18.7261 7.89171 18.6731 7.89801 18.6193L8.24453 15.6589C8.25075 15.6057 8.28517 15.56 8.33457 15.5394ZM8.50818 15.955L8.22382 18.3845L10.3133 17.3645L8.50818 15.955Z" fill="#E4761B"/>
<path d="M13.4011 17.3936L15.9548 18.6365L15.6007 15.6761L13.4011 17.3936Z" fill="#E4761B"/>
<path fill-rule="evenodd" clip-rule="evenodd" d="M15.6577 15.5393C15.707 15.5599 15.7415 15.6054 15.7478 15.6585L16.1019 18.619C16.1083 18.6728 16.0848 18.7258 16.0407 18.7573C15.9965 18.7887 15.9387 18.7935 15.8899 18.7698L13.3363 17.5268C13.2903 17.5045 13.2591 17.46 13.2538 17.4091C13.2484 17.3583 13.2696 17.3083 13.3099 17.2768L15.5096 15.5593C15.5517 15.5264 15.6083 15.5188 15.6577 15.5393ZM13.6794 17.3643L15.7754 18.3845L15.4848 15.9546L13.6794 17.3643Z" fill="#E4761B"/>
<path d="M15.9548 18.6366L13.4012 17.3936L13.6045 19.0584L13.5819 19.759L15.9548 18.6366Z" fill="#D7C1B3"/>
<path fill-rule="evenodd" clip-rule="evenodd" d="M13.3151 17.273C13.3593 17.2415 13.4172 17.2366 13.466 17.2604L16.0196 18.5033C16.0709 18.5283 16.1033 18.5804 16.103 18.6374C16.1026 18.6943 16.0697 18.7461 16.0182 18.7705L13.6453 19.8929C13.5986 19.9149 13.5438 19.9111 13.5007 19.8828C13.4575 19.8545 13.4322 19.8058 13.4339 19.7542L13.4561 19.065L13.2541 17.4116C13.2475 17.3577 13.2709 17.3045 13.3151 17.273ZM13.5812 17.646L13.7516 19.0404C13.7525 19.048 13.7528 19.0556 13.7526 19.0632L13.7378 19.5213L15.6124 18.6346L13.5812 17.646Z" fill="#D7C1B3"/>
<path d="M8.0452 18.6366L10.4181 19.759L10.403 19.0584L10.5913 17.3936L8.0452 18.6366Z" fill="#D7C1B3"/>
<path fill-rule="evenodd" clip-rule="evenodd" d="M10.6768 17.2726C10.721 17.3038 10.7446 17.3565 10.7386 17.4103L10.5514 19.0652L10.5662 19.7558C10.5673 19.8071 10.5418 19.8553 10.4987 19.8833C10.4556 19.9112 10.4012 19.9148 10.3547 19.8929L7.98187 18.7705C7.93038 18.7461 7.89742 18.6944 7.89707 18.6375C7.89672 18.5805 7.92904 18.5284 7.98022 18.5034L10.5264 17.2605C10.575 17.2367 10.6326 17.2414 10.6768 17.2726ZM8.38723 18.6344L10.2648 19.5226L10.2549 19.0616C10.2548 19.0549 10.2551 19.0483 10.2558 19.0417L10.4138 17.6451L8.38723 18.6344Z" fill="#D7C1B3"/>
<path d="M10.4557 14.5763L8.33145 13.951L9.83051 13.2655L10.4557 14.5763Z" fill="#233447"/>
<path fill-rule="evenodd" clip-rule="evenodd" d="M9.76892 13.1308C9.84248 13.0972 9.92942 13.1288 9.96424 13.2018L10.5895 14.5125C10.6147 14.5653 10.6064 14.6279 10.5685 14.6724C10.5306 14.7169 10.47 14.7349 10.4139 14.7184L8.28964 14.0932C8.23034 14.0757 8.1881 14.0233 8.1837 13.9616C8.17929 13.8999 8.21364 13.842 8.26986 13.8163L9.76892 13.1308ZM8.75368 13.9209L10.1791 14.3404L9.75957 13.4609L8.75368 13.9209Z" fill="#233447"/>
<path d="M13.5367 14.5763L14.162 13.2655L15.6686 13.951L13.5367 14.5763Z" fill="#233447"/>
<path fill-rule="evenodd" clip-rule="evenodd" d="M14.0283 13.2018C14.063 13.1289 14.1498 13.0973 14.2233 13.1307L15.7299 13.8162C15.7862 13.8418 15.8207 13.8998 15.8163 13.9615C15.8119 14.0233 15.7696 14.0758 15.7102 14.0932L13.5784 14.7184C13.5223 14.7349 13.4618 14.7168 13.4239 14.6723C13.3861 14.6279 13.3779 14.5652 13.403 14.5125L14.0283 13.2018ZM14.233 13.4607L13.8132 14.3408L15.2447 13.921L14.233 13.4607Z" fill="#233447"/>
<path d="M8.04518 18.6365L8.40676 15.5782L6.04895 15.646L8.04518 18.6365Z" fill="#CD6116"/>
<path fill-rule="evenodd" clip-rule="evenodd" d="M8.51609 15.4781C8.54516 15.5099 8.55896 15.5528 8.5539 15.5955L8.19232 18.6539C8.18504 18.7155 8.14011 18.7661 8.07976 18.7806C8.01941 18.7951 7.95644 18.7704 7.92198 18.7188L5.92575 15.7282C5.89583 15.6834 5.89261 15.6258 5.91734 15.578C5.94207 15.5301 5.99084 15.4994 6.04471 15.4979L8.40252 15.4301C8.44557 15.4288 8.48702 15.4464 8.51609 15.4781ZM6.3208 15.7863L7.94527 18.22L8.23951 15.7312L6.3208 15.7863Z" fill="#CD6116"/>
<path d="M15.5932 15.5782L15.9548 18.6365L17.951 15.646L15.5932 15.5782Z" fill="#CD6116"/>
<path fill-rule="evenodd" clip-rule="evenodd" d="M15.4839 15.4781C15.513 15.4464 15.5544 15.4288 15.5975 15.4301L17.9553 15.4979C18.0092 15.4994 18.0579 15.5301 18.0827 15.578C18.1074 15.6258 18.1042 15.6834 18.0743 15.7282L16.078 18.7188C16.0436 18.7704 15.9806 18.7951 15.9202 18.7806C15.8599 18.7661 15.815 18.7155 15.8077 18.6539L15.4461 15.5955C15.441 15.5528 15.4548 15.5099 15.4839 15.4781ZM15.7605 15.7312L16.0547 18.22L17.6792 15.7863L15.7605 15.7312Z" fill="#CD6116"/>
<path d="M17.3861 12.2109L13.1526 12.3993L13.5443 14.5763L14.1695 13.2656L15.6761 13.9511L17.3861 12.2109Z" fill="#CD6116"/>
<path fill-rule="evenodd" clip-rule="evenodd" d="M17.5214 12.1506C17.5462 12.2062 17.5344 12.2713 17.4917 12.3148L15.7818 14.0549C15.7381 14.0993 15.6714 14.1117 15.6147 14.0859L14.2406 13.4606L13.678 14.6401C13.6503 14.6981 13.5883 14.7317 13.5245 14.7231C13.4608 14.7145 13.4098 14.6658 13.3985 14.6025L13.0067 12.4255C12.9992 12.3834 13.0101 12.3402 13.0368 12.3068C13.0635 12.2734 13.1033 12.2531 13.146 12.2512L17.3795 12.0629C17.4403 12.0602 17.4966 12.095 17.5214 12.1506ZM13.3283 12.5397L13.6086 14.0973L14.0358 13.2018C14.0706 13.1288 14.1573 13.0972 14.2308 13.1307L15.6431 13.7733L17.0165 12.3757L13.3283 12.5397Z" fill="#CD6116"/>
<path d="M8.33147 13.9511L9.83806 13.2656L10.4558 14.5763L10.855 12.3993L6.61395 12.2109L8.33147 13.9511Z" fill="#CD6116"/>
<path fill-rule="evenodd" clip-rule="evenodd" d="M6.47856 12.1508C6.50331 12.0951 6.55963 12.0602 6.62051 12.0629L10.8616 12.2512C10.9043 12.2531 10.9442 12.2735 10.9709 12.307C10.9976 12.3405 11.0084 12.3839 11.0007 12.426L10.6015 14.603C10.5899 14.6663 10.5387 14.7149 10.4749 14.7232C10.4111 14.7315 10.3492 14.6976 10.3217 14.6394L9.76635 13.4609L8.39281 14.0859C8.33626 14.1116 8.26966 14.0993 8.22602 14.0551L6.5085 12.315C6.46569 12.2716 6.45381 12.2065 6.47856 12.1508ZM6.98472 12.3757L8.36424 13.7734L9.77669 13.1307C9.85046 13.0971 9.93751 13.1291 9.97206 13.2024L10.3932 14.096L10.6786 12.5397L6.98472 12.3757Z" fill="#CD6116"/>
<path d="M6.61395 12.2109L8.39173 15.6761L8.33147 13.9511L6.61395 12.2109Z" fill="#E4751F"/>
<path fill-rule="evenodd" clip-rule="evenodd" d="M6.5271 12.0909C6.58634 12.048 6.66802 12.0548 6.71939 12.1069L8.4369 13.847C8.46301 13.8734 8.47822 13.9087 8.47952 13.9459L8.53979 15.6709C8.54221 15.7403 8.49618 15.802 8.42902 15.8195C8.36187 15.8369 8.29159 15.8054 8.25992 15.7437L6.48214 12.2786C6.44875 12.2135 6.46785 12.1338 6.5271 12.0909ZM7.18601 13.0014L8.22049 15.0178L8.18542 14.014L7.18601 13.0014Z" fill="#E4751F"/>
<path d="M15.6761 13.9511L15.6008 15.6761L17.3861 12.2109L15.6761 13.9511Z" fill="#E4751F"/>
<path fill-rule="evenodd" clip-rule="evenodd" d="M17.4729 12.0909C17.5322 12.1338 17.5513 12.2137 17.5178 12.2788L15.7325 15.7439C15.7006 15.8058 15.63 15.8371 15.5627 15.8193C15.4955 15.8014 15.4497 15.7391 15.4527 15.6696L15.5281 13.9446C15.5297 13.908 15.5448 13.8733 15.5704 13.8472L17.2804 12.1071C17.3317 12.0548 17.4135 12.048 17.4729 12.0909ZM15.8216 14.0143L15.7782 15.0082L16.8068 13.0118L15.8216 14.0143Z" fill="#E4751F"/>
<path d="M10.855 12.3993L10.4557 14.5763L10.9529 17.145L11.0659 13.7627L10.855 12.3993Z" fill="#E4751F"/>
<path fill-rule="evenodd" clip-rule="evenodd" d="M10.857 12.2511C10.9293 12.2521 10.9903 12.3052 11.0014 12.3766L11.2123 13.7401C11.2137 13.7492 11.2143 13.7584 11.214 13.7677L11.101 17.15C11.0985 17.2253 11.0397 17.2868 10.9646 17.2927C10.8894 17.2986 10.8218 17.2472 10.8075 17.1732L10.3103 14.6044C10.3068 14.5863 10.3067 14.5677 10.31 14.5495L10.7093 12.3725C10.7223 12.3014 10.7848 12.2501 10.857 12.2511ZM10.6065 14.5755L10.8487 15.827L10.9174 13.7716L10.8426 13.2882L10.6065 14.5755Z" fill="#E4751F"/>
<path d="M13.1525 12.3993L12.9491 13.7552L13.0395 17.145L13.5442 14.5763L13.1525 12.3993Z" fill="#E4751F"/>
<path fill-rule="evenodd" clip-rule="evenodd" d="M13.1504 12.2511C13.2229 12.2501 13.2855 12.3016 13.2983 12.373L13.6901 14.55C13.6933 14.5682 13.6932 14.5868 13.6896 14.6048L13.1849 17.1736C13.1704 17.2477 13.1024 17.2989 13.0272 17.2926C12.9519 17.2863 12.8935 17.2244 12.8914 17.149L12.801 13.7591C12.8008 13.7505 12.8013 13.7418 12.8026 13.7332L13.006 12.3773C13.0168 12.3056 13.0779 12.2522 13.1504 12.2511ZM13.1658 13.3095L13.0976 13.7643L13.152 15.8043L13.3935 14.5751L13.1658 13.3095Z" fill="#E4751F"/>
<path d="M13.5443 14.5763L13.0396 17.145L13.4011 17.3936L15.6008 15.6761L15.6761 13.951L13.5443 14.5763Z" fill="#F6851B"/>
<path fill-rule="evenodd" clip-rule="evenodd" d="M15.7674 13.8344C15.8051 13.8639 15.8262 13.9097 15.8241 13.9575L15.7488 15.6825C15.7469 15.7259 15.7261 15.7662 15.6919 15.7929L13.4923 17.5104C13.4413 17.5502 13.3705 17.5523 13.3172 17.5157L12.9556 17.2671C12.9069 17.2336 12.8828 17.1744 12.8942 17.1164L13.3989 14.5477C13.4095 14.4935 13.4495 14.4497 13.5026 14.4341L15.6344 13.8089C15.6803 13.7954 15.7298 13.8049 15.7674 13.8344ZM13.6723 14.6931L13.2037 17.0781L13.3956 17.21L15.4557 15.6014L15.519 14.1515L13.6723 14.6931Z" fill="#F6851B"/>
<path d="M8.33145 13.951L8.39172 15.6761L10.5913 17.3936L10.9529 17.145L10.4557 14.5763L8.33145 13.951Z" fill="#F6851B"/>
<path fill-rule="evenodd" clip-rule="evenodd" d="M8.24067 13.834C8.27828 13.8048 8.32763 13.7955 8.3733 13.8089L10.4976 14.4342C10.5507 14.4498 10.5907 14.4937 10.6012 14.5481L11.0984 17.1169C11.1096 17.1747 11.0854 17.2337 11.0369 17.2671L10.6753 17.5157C10.622 17.5523 10.5511 17.5502 10.5002 17.5104L8.30056 15.7929C8.26603 15.7659 8.2452 15.725 8.24367 15.6813L8.18341 13.9562C8.18175 13.9086 8.20305 13.8632 8.24067 13.834ZM8.4867 14.1512L8.53738 15.6018L10.5969 17.21L10.7891 17.0779L10.3274 14.6929L8.4867 14.1512Z" fill="#F6851B"/>
<path d="M13.5819 19.759L13.6045 19.0584L13.4162 18.8927H10.5763L10.403 19.0584L10.4181 19.759L8.0452 18.6365L8.87382 19.3145L10.5537 20.4821H13.4388L15.1262 19.3145L15.9548 18.6365L13.5819 19.759Z" fill="#C0AD9E"/>
<path fill-rule="evenodd" clip-rule="evenodd" d="M7.92 18.5574C7.96 18.4941 8.0409 18.4706 8.10857 18.5026L10.2648 19.5226L10.2549 19.0616C10.254 19.02 10.2706 18.98 10.3006 18.9513L10.4739 18.7856C10.5015 18.7592 10.5381 18.7445 10.5763 18.7445H13.4162C13.4522 18.7445 13.487 18.7576 13.5141 18.7814L13.7024 18.9472C13.7356 18.9764 13.754 19.0189 13.7526 19.0632L13.7378 19.5213L15.8915 18.5026C15.9591 18.4706 16.04 18.4941 16.08 18.5574C16.12 18.6206 16.1066 18.7038 16.0486 18.7512L15.22 19.4292C15.2169 19.4317 15.2138 19.4341 15.2105 19.4363L13.5231 20.6039C13.4983 20.6211 13.4689 20.6303 13.4388 20.6303H10.5537C10.5235 20.6303 10.494 20.621 10.4691 20.6038L8.78929 19.4362C8.78611 19.4339 8.78303 19.4316 8.78003 19.4292L7.95141 18.7512C7.89348 18.7038 7.88 18.6206 7.92 18.5574ZM9.13636 19.3166L10.6001 20.334H13.3926L14.8612 19.3177L13.6453 19.8929C13.5986 19.9149 13.5438 19.9111 13.5007 19.8828C13.4575 19.8545 13.4322 19.8058 13.4339 19.7542L13.4542 19.1234L13.3603 19.0408H10.6357L10.5525 19.1204L10.5662 19.7558C10.5673 19.8071 10.5418 19.8553 10.4987 19.8833C10.4556 19.9112 10.4012 19.9148 10.3548 19.8929L9.13636 19.3166Z" fill="#C0AD9E"/>
<path d="M13.4012 17.3936L13.0396 17.145H10.953L10.5914 17.3936L10.403 19.0584L10.5763 18.8927H13.4162L13.6046 19.0584L13.4012 17.3936Z" fill="#161616"/>
<path fill-rule="evenodd" clip-rule="evenodd" d="M10.869 17.0229C10.8937 17.0059 10.923 16.9969 10.9529 16.9969H13.0396C13.0695 16.9969 13.0988 17.0059 13.1235 17.0229L13.4851 17.2715C13.5201 17.2956 13.5431 17.3335 13.5482 17.3756L13.7516 19.0404C13.7591 19.1014 13.728 19.1607 13.6737 19.1894C13.6193 19.2181 13.5528 19.2102 13.5067 19.1696L13.3603 19.0408H10.6357L10.5054 19.1654C10.4604 19.2085 10.3931 19.2188 10.3372 19.1911C10.2814 19.1634 10.2488 19.1037 10.2558 19.0417L10.4442 17.3769C10.449 17.3343 10.4721 17.2958 10.5074 17.2715L10.869 17.0229ZM10.999 17.2932L10.731 17.4774L10.5876 18.7445H13.4162C13.4165 18.7445 13.4167 18.7445 13.4169 18.7445L13.2622 17.4778L12.9936 17.2932H10.999Z" fill="#161616"/>
<path d="M20.9642 8.60266L21.6045 5.52921L20.6479 2.67422L13.4012 8.05276L16.1883 10.4106L20.1281 11.5631L21.0019 10.5462L20.6253 10.275L21.2279 9.72507L20.7609 9.36349L21.3635 8.90398L20.9642 8.60266Z" fill="#763D16"/>
<path fill-rule="evenodd" clip-rule="evenodd" d="M20.6923 2.53288C20.7375 2.5471 20.7732 2.58215 20.7883 2.62714L21.745 5.48213C21.7533 5.50703 21.7549 5.53371 21.7496 5.55942L21.1284 8.54095L21.4527 8.78572C21.4897 8.81363 21.5115 8.85725 21.5116 8.9036C21.5117 8.94994 21.4902 8.99367 21.4533 9.02177L21.004 9.36437L21.3186 9.60792C21.3532 9.63469 21.3741 9.67537 21.3759 9.71907C21.3777 9.76277 21.36 9.80502 21.3277 9.83449L20.8599 10.2614L21.0885 10.4259C21.1221 10.4502 21.1441 10.4874 21.149 10.5286C21.1539 10.5698 21.1413 10.6112 21.1143 10.6427L20.2404 11.6597C20.2025 11.7038 20.1423 11.7216 20.0865 11.7053L16.1467 10.5527C16.1269 10.5469 16.1085 10.537 16.0927 10.5237L13.3055 8.16585C13.2709 8.13663 13.2516 8.09324 13.2531 8.04803C13.2545 8.00282 13.2765 7.96074 13.3128 7.93378L20.5595 2.55525C20.5977 2.52697 20.647 2.51865 20.6923 2.53288ZM13.6395 8.06033L16.2601 10.2772L20.078 11.3941L20.7843 10.572L20.5387 10.3952C20.5025 10.3691 20.4799 10.3281 20.4773 10.2835C20.4748 10.239 20.4924 10.1956 20.5254 10.1655L20.9979 9.73436L20.6701 9.48062C20.6338 9.45245 20.6125 9.40896 20.6127 9.36293C20.6129 9.31691 20.6344 9.27358 20.671 9.24567L21.1184 8.90457L20.875 8.7209C20.8292 8.68637 20.8075 8.62855 20.8192 8.57243L21.4513 5.53825L20.5722 2.91483L13.6395 8.06033Z" fill="#763D16"/>
<path d="M2.39548 5.52921L3.03578 8.60266L2.629 8.90398L3.23164 9.36349L2.77213 9.72507L3.37476 10.275L2.99811 10.5462L3.8644 11.5631L7.80414 10.4106L10.5913 8.05276L3.34463 2.67422L2.39548 5.52921Z" fill="#763D16"/>
<path fill-rule="evenodd" clip-rule="evenodd" d="M3.30006 2.53293C3.34537 2.51863 3.39479 2.52693 3.43294 2.55525L10.6796 7.93378C10.716 7.96074 10.738 8.00282 10.7394 8.04803C10.7409 8.09324 10.7216 8.13663 10.687 8.16585L7.89984 10.5237C7.88404 10.537 7.86561 10.5469 7.84575 10.5527L3.90602 11.7053C3.84997 11.7217 3.78951 11.7036 3.75164 11.6592L2.88535 10.6422C2.85851 10.6107 2.84608 10.5694 2.85106 10.5283C2.85604 10.4872 2.87798 10.4501 2.91157 10.4259L3.1401 10.2614L2.67228 9.8345C2.64013 9.80515 2.6225 9.76316 2.62409 9.71966C2.62568 9.67616 2.64632 9.63555 2.68053 9.60864L2.98974 9.36532L2.53919 9.02178C2.50215 8.99353 2.48055 8.94951 2.48087 8.90294C2.48119 8.85636 2.5034 8.81265 2.54083 8.78492L2.87142 8.54004L2.25046 5.55942C2.24513 5.53382 2.24666 5.50727 2.25491 5.48247L3.20406 2.62747C3.21905 2.58239 3.25475 2.54723 3.30006 2.53293ZM3.42067 2.91513L2.54867 5.53806L3.18083 8.57243C3.19262 8.62902 3.17042 8.68729 3.12398 8.72169L2.87559 8.90568L3.32148 9.24567C3.35792 9.27345 3.37945 9.31653 3.3798 9.36235C3.38014 9.40817 3.35927 9.45157 3.32326 9.4799L3.00109 9.73342L3.47464 10.1655C3.50761 10.1956 3.52526 10.239 3.52268 10.2835C3.5201 10.3281 3.49756 10.3691 3.46134 10.3952L3.21515 10.5725L3.91495 11.394L7.73244 10.2772L10.353 8.06033L3.42067 2.91513Z" fill="#763D16"/>
<path d="M20.1281 11.5631L16.1883 10.4106L17.3861 12.2109L15.6008 15.6761L17.9511 15.646H21.4539L20.1281 11.5631Z" fill="#F6851B"/>
<path fill-rule="evenodd" clip-rule="evenodd" d="M16.069 10.3228C16.1059 10.2726 16.1702 10.2509 16.23 10.2684L20.1697 11.4209C20.2167 11.4347 20.2539 11.4707 20.269 11.5173L21.5948 15.6002C21.6094 15.6453 21.6016 15.6947 21.5737 15.733C21.5459 15.7714 21.5013 15.7941 21.4539 15.7941H17.952L15.6027 15.8242C15.5507 15.8249 15.5021 15.7982 15.4748 15.754C15.4474 15.7098 15.4453 15.6545 15.4691 15.6082L17.2145 12.2205L16.065 10.4926C16.0305 10.4408 16.0321 10.3729 16.069 10.3228ZM16.5368 10.6668L17.5094 12.1289C17.5392 12.1736 17.5424 12.231 17.5178 12.2788L15.8454 15.5248L17.9511 15.4978L21.25 15.4978L20.0114 11.6833L16.5368 10.6668Z" fill="#F6851B"/>
<path d="M7.80415 10.4106L3.86441 11.5631L2.55368 15.646H6.04897L8.39172 15.6761L6.61394 12.2109L7.80415 10.4106Z" fill="#F6851B"/>
<path fill-rule="evenodd" clip-rule="evenodd" d="M7.92332 10.3226C7.96024 10.3726 7.96198 10.4404 7.92769 10.4922L6.78525 12.2204L8.52349 15.6085C8.54721 15.6547 8.54498 15.71 8.51761 15.7541C8.49024 15.7983 8.44173 15.8249 8.38977 15.8242L6.04795 15.7941H2.55364C2.50631 15.7941 2.46182 15.7715 2.43394 15.7332C2.40605 15.695 2.39811 15.6457 2.41258 15.6007L3.72331 11.5178C3.73834 11.471 3.7756 11.4347 3.82278 11.4209L7.76251 10.2684C7.82219 10.2509 7.88641 10.2726 7.92332 10.3226ZM3.9814 11.6832L2.75679 15.4978H6.05084L8.14755 15.5248L6.48209 12.2785C6.45766 12.2309 6.46081 12.1739 6.49032 12.1292L7.45742 10.6663L3.9814 11.6832Z" fill="#F6851B"/>
<path d="M13.1525 12.3993L13.4011 8.05274L14.5461 4.9567H9.4614L10.5913 8.05274L10.855 12.3993L10.9454 13.7703L10.9529 17.145H13.0396L13.0546 13.7703L13.1525 12.3993Z" fill="#F6851B"/>
<path fill-rule="evenodd" clip-rule="evenodd" d="M9.34002 4.87176C9.36774 4.83213 9.41305 4.80853 9.46141 4.80853H14.5462C14.5946 4.80853 14.64 4.83224 14.6677 4.87202C14.6954 4.9118 14.7019 4.96261 14.6851 5.00807L13.5478 8.08332L13.3003 12.4098L13.2028 13.7759L13.1877 17.1457C13.1874 17.2272 13.1211 17.2932 13.0396 17.2932H10.9529C10.8712 17.2932 10.805 17.227 10.8048 17.1453L10.7973 13.7753L10.7072 12.409L10.7071 12.4082L10.4448 8.08324L9.32224 5.00747C9.30566 4.96205 9.3123 4.91138 9.34002 4.87176ZM9.67319 5.10483L10.7305 8.00193C10.7354 8.01538 10.7384 8.02947 10.7392 8.04376L11.0028 12.3895L11.0029 12.3903L11.0932 13.7605C11.0934 13.7636 11.0935 13.7668 11.0936 13.7699L11.1008 16.9969H12.8921L12.9065 13.7696C12.9065 13.7663 12.9066 13.763 12.9069 13.7597L13.0047 12.3897L13.2532 8.04427C13.2541 8.02959 13.2571 8.01513 13.2622 8.00134L14.3334 5.10483H9.67319Z" fill="#F6851B"/>
</svg>
