<svg class="svg-icon" style="width: 1em; height: 1em;vertical-align: middle;fill: currentColor;overflow: hidden;" viewBox="0 0 1024 1024" version="1.1" xmlns="http://www.w3.org/2000/svg"><path d="M828.6 421L379.7 689.3c-8.4 5-19.3 2.3-24.3-6.1l-173-289.5c-5-8.4-2.3-19.3 6.1-24.3l448.9-268.3c8.4-5 19.3-2.3 24.3 6.1l173 289.5c5.1 8.4 2.3 19.3-6.1 24.3z" fill="#FFC107" /><path d="M211.808 442.813l479.416-286.51 71.05 118.888L282.86 561.7z" fill="#FF8F00" /><path d="M862.7 925.4H135c-19.6 0-35.5-15.9-35.5-35.5V366.4c0-19.6 15.9-35.5 35.5-35.5h727.6c19.6 0 35.5 15.9 35.5 35.5V890c0.1 19.6-15.8 35.4-35.4 35.4z" fill="#F44336" /><path d="M898.2 890V662.9l-293.1 33.9L776 925.4h86.6c19.7 0 35.6-15.8 35.6-35.4z" fill="#E53935" /><path d="M683.3 732h223.4c9.8 0 17.7-7.9 17.7-17.7V542.1c0-9.8-7.9-17.7-17.7-17.7H683.3c-57.3 0-103.8 46.5-103.8 103.8S626 732 683.3 732z" fill="#FFEBEE" /><path d="M676.9 628.2m-44.3 0a44.3 44.3 0 1 0 88.6 0 44.3 44.3 0 1 0-88.6 0Z" fill="#F44336" /><path d="M135 330.9c-19.6 0-35.5 15.9-35.5 35.5V890c0 19.6 15.9 35.5 35.5 35.5h112.4V330.9H135z" fill="#D32F2F" /></svg>