<svg width="157" height="30" viewBox="0 0 157 30" fill="none" xmlns="http://www.w3.org/2000/svg">
<path fill-rule="evenodd" clip-rule="evenodd" d="M14.9898 20.4404L7.98948 25.8486L13.0582 29.7539C13.4842 30.0821 14.0955 30.0821 14.5215 29.7539L26.9452 20.1999L21.1145 15.7202L14.9898 20.4404ZM12.8958 20.6761L10.6367 18.9351L10.6334 18.9415L3.98193e-05 10.8709C3.21897e-05 10.8727 2.64675e-05 10.8746 2.64674e-05 10.8764L2.63768e-05 11.9128L-3.84738e-05 11.9216L-3.91035e-05 19.1238C-3.91354e-05 19.4884 0.166661 19.8167 0.444497 20.0355L7.07036 25.1405L12.8958 20.6761ZM0.55603 9.87884L6.37499 14.3495L13.0583 9.19891C13.1173 9.15342 13.1799 9.11424 13.2451 9.08136L19.6388 4.18151L14.5216 0.246266C14.0956 -0.0819371 13.4843 -0.0819371 13.0583 0.246266L0.55603 9.87884ZM20.5695 4.89725L14.7384 9.366L22.049 15.0001L22.044 15.004L27.5741 19.2528C27.5779 19.2159 27.5798 19.179 27.5798 19.142L27.5798 18.0878L27.5798 18.0786L27.5798 10.8582C27.5798 10.5117 27.4131 10.1653 27.1353 9.94649L20.5695 4.89725Z" fill="#040D27"/>
<path d="M67.2123 20.5816C66.8352 20.9586 66.378 21.1512 65.8406 21.1512C65.3032 21.1512 64.854 20.9586 64.4689 20.5816C64.0919 20.2046 63.8994 19.7474 63.8994 19.21C63.8994 18.6725 64.0919 18.2233 64.4689 17.8383C64.8459 17.4613 65.3032 17.2688 65.8406 17.2688C66.378 17.2688 66.8272 17.4613 67.2123 17.8383C67.5893 18.2153 67.7818 18.6725 67.7818 19.21C67.7818 19.7474 67.5973 20.2046 67.2123 20.5816Z" fill="#040D27"/>
<path d="M76.8266 9.02461C78.0635 9.02461 79.0705 9.45565 79.8714 10.3177C80.6801 11.1798 81.0925 12.3735 81.0925 13.8987V20.8865C81.0925 21.0274 80.9894 21.1351 80.8546 21.1351H78.4203C78.2855 21.1351 78.1825 21.0274 78.1825 20.8865V14.2883C78.1825 13.5008 77.9763 12.904 77.5719 12.4978C77.1675 12.075 76.6284 11.8595 75.9464 11.8595C75.1932 11.8595 73.4646 11.8595 73.4646 11.8595C73.4646 11.8595 73.4646 13.8158 73.4646 14.7856V20.903C73.4646 21.0439 73.3615 21.1517 73.2267 21.1517H70.7925C70.6577 21.1517 70.5546 21.0439 70.5546 20.903V9.19869C70.5546 9.05777 70.6577 8.95001 70.7925 8.95001H73.4646C74.7333 8.95001 75.2963 9.02461 76.8266 9.02461Z" fill="#040D27"/>
<path d="M86.2715 16.2857C86.6783 17.7317 87.7905 18.4547 89.6 18.4547C90.6791 18.4547 91.5174 18.1216 92.1151 17.4555C92.1898 17.3661 92.3226 17.3417 92.4222 17.3986L94.4558 18.544C94.5886 18.6171 94.6218 18.7959 94.5305 18.9096C93.3685 20.4043 91.7084 21.1517 89.5502 21.1517C87.5996 21.1517 86.0308 20.5749 84.8522 19.4214C83.6735 18.2678 83.0842 16.8137 83.0842 15.0509C83.0842 13.3124 83.6652 11.8583 84.8273 10.7047C85.9893 9.53491 87.4834 8.95001 89.3095 8.95001C91.0443 8.95001 92.4637 9.53491 93.5843 10.7047C94.7214 11.8745 95.2859 13.3205 95.2859 15.0509C95.2859 15.3758 95.261 15.7089 95.2029 16.0663C95.1863 16.1882 95.0784 16.2775 94.9538 16.2775H86.2715V16.2857ZM86.23 13.9704H92.2479C92.0736 13.1824 91.7167 12.5975 91.1605 12.2157C90.6293 11.8339 90.0151 11.6389 89.3178 11.6389C88.4961 11.6389 87.8237 11.8501 87.2842 12.2645C86.753 12.6625 86.3961 13.2312 86.23 13.9704Z" fill="#040D27"/>
<path d="M102.583 12.1505H100.24V17.0761C100.24 17.4837 100.337 17.7833 100.538 17.9746C100.739 18.166 101.029 18.2742 101.407 18.3074C101.729 18.3241 102.116 18.3158 102.566 18.2991C102.703 18.2908 102.824 18.4073 102.824 18.5487V20.8284C102.824 20.9532 102.727 21.0697 102.599 21.078C100.683 21.2777 99.3224 21.0697 98.5174 20.4623C97.6964 19.83 97.2778 18.7068 97.2778 17.0761V12.1505V9.21354V6.4263C97.2778 6.28486 97.3824 6.1767 97.5193 6.1767H99.9905C100.127 6.1767 100.232 6.28486 100.232 6.4263V9.21354H102.574C102.711 9.21354 102.816 9.3217 102.816 9.46314V11.9009C102.824 12.0341 102.711 12.1505 102.583 12.1505Z" fill="#040D27"/>
<path d="M118.545 8.95001H121.206C121.37 8.95001 121.492 9.12163 121.443 9.28466L117.908 20.9715C117.875 21.0745 117.777 21.1517 117.671 21.1517H115.172C115.066 21.1517 114.968 21.0745 114.936 20.9715L112.854 13.7552L110.771 20.9715C110.739 21.0831 110.649 21.1517 110.535 21.1517H108.036C107.93 21.1517 107.832 21.0831 107.799 20.9715L104.272 9.28466C104.223 9.12163 104.337 8.95001 104.509 8.95001H107.171C107.277 8.95001 107.375 9.02724 107.407 9.13879L109.334 16.4409L111.392 9.13021C111.425 9.01866 111.514 8.95001 111.629 8.95001H114.095C114.201 8.95001 114.299 9.02724 114.331 9.13021L116.397 16.4667L118.324 9.13879C118.34 9.02724 118.438 8.95001 118.545 8.95001Z" fill="#040D27"/>
<path d="M132.763 19.397C131.579 20.5668 130.136 21.1517 128.425 21.1517C126.723 21.1517 125.271 20.5668 124.088 19.397C122.92 18.211 122.337 16.7649 122.337 15.0509C122.337 13.3449 122.92 11.8989 124.088 10.7291C125.271 9.54304 126.715 8.95001 128.425 8.95001C130.136 8.95001 131.579 9.54304 132.763 10.7291C133.946 11.8989 134.538 13.3368 134.538 15.0509C134.538 16.7649 133.946 18.211 132.763 19.397ZM126.188 17.3417C126.788 17.9429 127.533 18.2434 128.425 18.2434C129.317 18.2434 130.063 17.9429 130.663 17.3417C131.263 16.7406 131.563 15.977 131.563 15.0509C131.563 14.1248 131.263 13.3611 130.663 12.76C130.063 12.1588 129.317 11.8583 128.425 11.8583C127.533 11.8583 126.788 12.1588 126.188 12.76C125.604 13.3611 125.312 14.1248 125.312 15.0509C125.312 15.977 125.604 16.7406 126.188 17.3417Z" fill="#040D27"/>
<path d="M142.631 9.20039V11.7626C142.631 11.9045 142.531 12.013 142.401 12.013H140.34C139.782 12.013 139.332 12.5054 139.332 13.1146V15.4765V20.9013C139.332 21.0432 139.233 21.1517 139.103 21.1517H136.759C136.629 21.1517 136.53 21.0432 136.53 20.9013V11.8043C136.53 10.2269 137.698 8.95001 139.141 8.95001H142.401C142.524 8.95001 142.631 9.06685 142.631 9.20039Z" fill="#040D27"/>
<path d="M147.95 15.7411V20.9003C147.95 21.0426 147.852 21.1515 147.723 21.1515H145.404C145.275 21.1515 145.177 21.0426 145.177 20.9003V6.42795C145.177 6.28557 145.275 6.1767 145.404 6.1767H147.723C147.852 6.1767 147.95 6.28557 147.95 6.42795V15.7411Z" fill="#040D27"/>
<path d="M152.336 14.7284C152.198 14.9176 152.198 15.1841 152.336 15.3733L156.217 20.7304C156.34 20.9023 156.233 21.1517 156.026 21.1517H153.025C152.88 21.1517 152.742 21.0743 152.65 20.9539L148.608 15.3733C148.47 15.1841 148.47 14.9176 148.608 14.7284L152.65 9.14778C152.742 9.0188 152.88 8.95001 153.025 8.95001H156.026C156.225 8.95001 156.34 9.19938 156.217 9.37135L152.336 14.7284Z" fill="#040D27"/>
<path d="M61.651 13.8456C61.5926 12.3472 61.2261 11.1745 60.3681 10.3276C59.5268 9.48065 58.4605 9.14677 57.1693 9.05719C56.5695 9.01647 55.3033 8.95946 54.0205 8.95132C52.4294 8.94318 50.8383 8.97575 50.8383 8.97575C50.6967 8.97575 50.5884 9.08162 50.5884 9.22006V11.0768V19.082V20.9387V25.5887H53.6456V23.3248V18.3327C53.6456 18.3327 53.6456 17.8767 53.6456 17.2985C53.6456 16.6877 53.6456 15.9467 53.6456 15.4581V14.7007V11.826C53.6456 11.826 55.4616 11.826 56.253 11.826C56.961 11.826 57.5358 12.0377 57.9607 12.4531C58.3855 12.8521 58.6021 13.4384 58.6021 14.2121V14.3342V15.9467C58.6021 16.7203 58.3855 17.3066 57.9607 17.7057C57.5358 18.121 56.9694 18.3327 56.253 18.3327C55.7198 18.3327 54.1288 18.3327 54.1288 18.3327V21.1097C55.1117 21.1179 55.7782 21.1667 57.1776 21.1097C58.4771 21.0608 59.5434 20.6862 60.3764 19.8393C61.1511 19.0657 61.551 18.0151 61.626 16.7122C61.6343 16.6877 61.6593 16.6714 61.6593 16.6389C61.651 16.6389 61.7176 15.4499 61.651 13.8456Z" fill="#040D27"/>
<path d="M38.3944 14.7271C38.5407 14.9156 38.5407 15.186 38.3944 15.3745L34.2317 20.7337C34.1016 20.9058 34.2154 21.1516 34.435 21.1516H37.6545C37.809 21.1516 37.9635 21.0779 38.061 20.955L42.3863 15.3745C42.5326 15.186 42.5326 14.9156 42.3863 14.7271L38.0529 9.14662C37.9553 9.0237 37.809 8.94995 37.6464 8.94995H34.435C34.2236 8.94995 34.1016 9.20398 34.2317 9.36787L38.3944 14.7271Z" fill="#040D27"/>
<path d="M43.8247 14.7271C43.6784 14.9156 43.6784 15.186 43.8247 15.3745L47.9874 20.7337C48.1174 20.9058 48.0036 21.1516 47.7841 21.1516H44.5645C44.4101 21.1516 44.2556 21.0779 44.158 20.955L39.8328 15.3745C39.6864 15.186 39.6864 14.9156 39.8328 14.7271L44.1662 9.14662C44.2637 9.0237 44.4101 8.94995 44.5727 8.94995H47.7841C47.9955 8.94995 48.1174 9.20398 47.9874 9.36787L43.8247 14.7271Z" fill="#040D27"/>
</svg>
